<?xml version="1.0" encoding="UTF-8"?>
<svg xmlns="http://www.w3.org/2000/svg" width="1200" height="800" viewBox="0 0 1200 800" role="img" aria-labelledby="title desc">
  <title id="title">AutoPi CAN-FD Pro Interfaces</title>
  <desc id="desc">Fleet, vehicle and equipment data logging</desc>
  <defs>
    <linearGradient id="bg" x1="0" y1="0" x2="1" y2="1">
      <stop offset="0" stop-color="#020617" />
      <stop offset="0.54" stop-color="#0f172a" />
      <stop offset="1" stop-color="#172554" />
    </linearGradient>
    <linearGradient id="accent" x1="0" y1="0" x2="1" y2="1">
      <stop offset="0" stop-color="#67e8f9" />
      <stop offset="1" stop-color="#a78bfa" />
    </linearGradient>
    <radialGradient id="halo" cx="50%" cy="42%" r="56%">
      <stop offset="0" stop-color="#67e8f9" stop-opacity="0.28" />
      <stop offset="1" stop-color="#67e8f9" stop-opacity="0" />
    </radialGradient>
    <filter id="softGlow" x="-30%" y="-30%" width="160%" height="160%">
      <feGaussianBlur stdDeviation="14" result="blur" />
      <feMerge>
        <feMergeNode in="blur" />
        <feMergeNode in="SourceGraphic" />
      </feMerge>
    </filter>
    <style>
      .bg { fill: url(#bg); }
      .halo { fill: url(#halo); }
      .grid { stroke: #94a3b8; stroke-opacity: .08; stroke-width: 1; }
      .glyph { fill: #e2e8f0; opacity: .10; font-family: ui-monospace, SFMono-Regular, Menlo, monospace; font-size: 30px; font-weight: 700; }
      .title { fill: #f8fafc; font-family: ui-sans-serif, system-ui, sans-serif; font-size: 54px; font-weight: 800; letter-spacing: -.04em; }
      .eyebrow { fill: #67e8f9; font-family: ui-monospace, SFMono-Regular, Menlo, monospace; font-size: 18px; font-weight: 800; letter-spacing: .14em; text-transform: uppercase; }
      .subtitle { fill: #cbd5e1; font-family: ui-sans-serif, system-ui, sans-serif; font-size: 24px; font-weight: 600; }
      .fine-label { fill: #94a3b8; font-family: ui-sans-serif, system-ui, sans-serif; font-size: 18px; font-weight: 600; }
      .device-body { fill: #111827; stroke: url(#accent); stroke-width: 4; filter: url(#softGlow); }
      .device-side { fill: #1e293b; stroke: #475569; stroke-width: 3; }
      .screen { fill: #020617; stroke: #334155; stroke-width: 3; }
      .screen-grid { stroke: #67e8f9; stroke-opacity: .28; stroke-width: 2; }
      .screen-text { fill: #e0f2fe; font-family: ui-monospace, SFMono-Regular, Menlo, monospace; font-size: 27px; font-weight: 800; }
      .small-screen-text { fill: #bae6fd; font-family: ui-monospace, SFMono-Regular, Menlo, monospace; font-size: 16px; font-weight: 700; }
      .button-key { fill: #334155; stroke: #64748b; stroke-width: 2; }
      .button-key.active { fill: #67e8f9; opacity: .9; }
      .panel rect { fill: rgba(15, 23, 42, .76); stroke: rgba(148, 163, 184, .26); stroke-width: 2; }
      .panel-eyebrow { fill: #67e8f9; font-family: ui-monospace, SFMono-Regular, Menlo, monospace; font-size: 15px; font-weight: 800; letter-spacing: .12em; text-transform: uppercase; }
      .panel-title { fill: #f8fafc; font-family: ui-sans-serif, system-ui, sans-serif; font-size: 32px; font-weight: 800; letter-spacing: -.03em; }
      .panel-copy { fill: #cbd5e1; font-family: ui-sans-serif, system-ui, sans-serif; font-size: 20px; font-weight: 650; }
      .panel-copy.strong { fill: #f1f5f9; font-size: 19px; }
      .pill rect, .port rect { fill: rgba(30, 41, 59, .94); stroke: #67e8f9; stroke-opacity: .44; stroke-width: 2; }
      .pill text, .port text { fill: #f8fafc; font-family: ui-sans-serif, system-ui, sans-serif; font-size: 18px; font-weight: 750; }
      .bus-line path { fill: none; stroke: url(#accent); stroke-width: 5; stroke-linecap: round; stroke-dasharray: 16 16; }
      .bus-line circle, .node { fill: #67e8f9; filter: url(#softGlow); }
      .signal { fill: none; stroke: url(#accent); stroke-width: 4; stroke-linecap: round; stroke-dasharray: 10 14; }
      .equipment { fill: #1e293b; stroke: #64748b; stroke-width: 4; }
      .cab { fill: #334155; stroke: #67e8f9; stroke-width: 3; }
      .window { fill: #0f172a; stroke: #67e8f9; stroke-width: 3; opacity: .92; }
      .arm { fill: none; stroke: #64748b; stroke-width: 20; stroke-linecap: round; }
      .floor { fill: #334155; opacity: .62; }
      .wheel { fill: #0f172a; stroke: #64748b; stroke-width: 12; }
      .logger-case { fill: #111827; stroke: url(#accent); stroke-width: 4; filter: url(#softGlow); }
      .logger-face { fill: #1e293b; stroke: #475569; stroke-width: 3; }
      .module-terminal { fill: #334155; stroke: #64748b; stroke-width: 2; }
    </style>
  </defs>
  <rect class="bg" width="1200" height="800" rx="0" />
  <rect class="halo" width="1200" height="800" />
  <g><path class="grid" d="M0 0 V800" /><path class="grid" d="M80 0 V800" /><path class="grid" d="M160 0 V800" /><path class="grid" d="M240 0 V800" /><path class="grid" d="M320 0 V800" /><path class="grid" d="M400 0 V800" /><path class="grid" d="M480 0 V800" /><path class="grid" d="M560 0 V800" /><path class="grid" d="M640 0 V800" /><path class="grid" d="M720 0 V800" /><path class="grid" d="M800 0 V800" /><path class="grid" d="M880 0 V800" /><path class="grid" d="M960 0 V800" /><path class="grid" d="M1040 0 V800" /><path class="grid" d="M1120 0 V800" /><path class="grid" d="M1200 0 V800" /><path class="grid" d="M0 0 H1200" /><path class="grid" d="M0 80 H1200" /><path class="grid" d="M0 160 H1200" /><path class="grid" d="M0 240 H1200" /><path class="grid" d="M0 320 H1200" /><path class="grid" d="M0 400 H1200" /><path class="grid" d="M0 480 H1200" /><path class="grid" d="M0 560 H1200" /><path class="grid" d="M0 640 H1200" /><path class="grid" d="M0 720 H1200" /><path class="grid" d="M0 800 H1200" /></g>
  <g><text class="glyph" x="1060" y="86">{</text><text class="glyph" x="940" y="104">CAN</text><text class="glyph" x="86" y="712">&lt;&gt;</text><text class="glyph" x="1030" y="704">//</text><text class="glyph" x="545" y="92">[]</text><text class="glyph" x="610" y="716">=</text></g>
  <text class="eyebrow" x="70" y="88">Interfaces</text>
  <text class="title" x="70" y="146">AutoPi CAN-FD Pro</text>
  <text class="subtitle" x="72" y="190">Connection planning</text>
  
    
    <g>
      <rect class="logger-case" x="420.6" y="183.6" width="331.2" height="151.20000000000002" rx="42" />
      <rect class="logger-face" x="471.2" y="216" width="230" height="86.4" rx="26" />
      <circle class="node" cx="517.2" cy="259.2" r="13" />
      <circle class="node" cx="581.6" cy="259.2" r="13" />
      <circle class="node" cx="646" cy="259.2" r="13" />
      <path class="signal" d="M692 189 C747.2 140.4 802.4 148.5 820.8 183.6" />
      <text class="screen-text" x="485" y="361.79999999999995">CAN-FD / LTE</text>
    </g>
  
    <g class="bus-line">
      <path d="M220 420 H980" />
      <circle cx="220" cy="420" r="9" />
      <circle cx="600" cy="420" r="9" />
      <circle cx="980" cy="420" r="9" />
    </g>
    
    <g class="port">
      <rect x="120" y="470" width="174" height="58" rx="18" />
      <path class="signal" d="M136 498 h30" />
      <text x="178" y="506">CAN-FD 1</text>
    </g>
  
    <g class="port">
      <rect x="330" y="470" width="174" height="58" rx="18" />
      <path class="signal" d="M346 498 h30" />
      <text x="388" y="506">CAN-FD 2</text>
    </g>
  
    <g class="port">
      <rect x="540" y="470" width="174" height="58" rx="18" />
      <path class="signal" d="M556 498 h30" />
      <text x="598" y="506">LTE</text>
    </g>
  
    <g class="port">
      <rect x="120" y="560" width="174" height="58" rx="18" />
      <path class="signal" d="M136 588 h30" />
      <text x="178" y="596">GNSS</text>
    </g>
  
    <g class="port">
      <rect x="330" y="560" width="174" height="58" rx="18" />
      <path class="signal" d="M346 588 h30" />
      <text x="388" y="596">USB storage</text>
    </g>
  
    <text class="fine-label" x="90" y="704">Ports and options are confirmed against the application, enclosure and support requirements.</text>
  
</svg>
