<?xml version="1.0" encoding="UTF-8"?>
<svg xmlns="http://www.w3.org/2000/svg" width="1200" height="800" viewBox="0 0 1200 800" role="img" aria-labelledby="title desc">
  <title id="title">TOPCON OPUS A8e Application context</title>
  <desc id="desc">Large touch HMI for advanced machine interfaces</desc>
  <defs>
    <linearGradient id="bg" x1="0" y1="0" x2="1" y2="1">
      <stop offset="0" stop-color="#020617" />
      <stop offset="0.54" stop-color="#0f172a" />
      <stop offset="1" stop-color="#172554" />
    </linearGradient>
    <linearGradient id="accent" x1="0" y1="0" x2="1" y2="1">
      <stop offset="0" stop-color="#67e8f9" />
      <stop offset="1" stop-color="#c084fc" />
    </linearGradient>
    <radialGradient id="halo" cx="50%" cy="42%" r="56%">
      <stop offset="0" stop-color="#67e8f9" stop-opacity="0.28" />
      <stop offset="1" stop-color="#67e8f9" stop-opacity="0" />
    </radialGradient>
    <filter id="softGlow" x="-30%" y="-30%" width="160%" height="160%">
      <feGaussianBlur stdDeviation="14" result="blur" />
      <feMerge>
        <feMergeNode in="blur" />
        <feMergeNode in="SourceGraphic" />
      </feMerge>
    </filter>
    <style>
      .bg { fill: url(#bg); }
      .halo { fill: url(#halo); }
      .grid { stroke: #94a3b8; stroke-opacity: .08; stroke-width: 1; }
      .glyph { fill: #e2e8f0; opacity: .10; font-family: ui-monospace, SFMono-Regular, Menlo, monospace; font-size: 30px; font-weight: 700; }
      .title { fill: #f8fafc; font-family: ui-sans-serif, system-ui, sans-serif; font-size: 54px; font-weight: 800; letter-spacing: -.04em; }
      .eyebrow { fill: #67e8f9; font-family: ui-monospace, SFMono-Regular, Menlo, monospace; font-size: 18px; font-weight: 800; letter-spacing: .14em; text-transform: uppercase; }
      .subtitle { fill: #cbd5e1; font-family: ui-sans-serif, system-ui, sans-serif; font-size: 24px; font-weight: 600; }
      .fine-label { fill: #94a3b8; font-family: ui-sans-serif, system-ui, sans-serif; font-size: 18px; font-weight: 600; }
      .device-body { fill: #111827; stroke: url(#accent); stroke-width: 4; filter: url(#softGlow); }
      .device-side { fill: #1e293b; stroke: #475569; stroke-width: 3; }
      .screen { fill: #020617; stroke: #334155; stroke-width: 3; }
      .screen-grid { stroke: #67e8f9; stroke-opacity: .28; stroke-width: 2; }
      .screen-text { fill: #e0f2fe; font-family: ui-monospace, SFMono-Regular, Menlo, monospace; font-size: 27px; font-weight: 800; }
      .small-screen-text { fill: #bae6fd; font-family: ui-monospace, SFMono-Regular, Menlo, monospace; font-size: 16px; font-weight: 700; }
      .button-key { fill: #334155; stroke: #64748b; stroke-width: 2; }
      .button-key.active { fill: #67e8f9; opacity: .9; }
      .panel rect { fill: rgba(15, 23, 42, .76); stroke: rgba(148, 163, 184, .26); stroke-width: 2; }
      .panel-eyebrow { fill: #67e8f9; font-family: ui-monospace, SFMono-Regular, Menlo, monospace; font-size: 15px; font-weight: 800; letter-spacing: .12em; text-transform: uppercase; }
      .panel-title { fill: #f8fafc; font-family: ui-sans-serif, system-ui, sans-serif; font-size: 32px; font-weight: 800; letter-spacing: -.03em; }
      .panel-copy { fill: #cbd5e1; font-family: ui-sans-serif, system-ui, sans-serif; font-size: 20px; font-weight: 650; }
      .panel-copy.strong { fill: #f1f5f9; font-size: 19px; }
      .pill rect, .port rect { fill: rgba(30, 41, 59, .94); stroke: #67e8f9; stroke-opacity: .44; stroke-width: 2; }
      .pill text, .port text { fill: #f8fafc; font-family: ui-sans-serif, system-ui, sans-serif; font-size: 18px; font-weight: 750; }
      .bus-line path { fill: none; stroke: url(#accent); stroke-width: 5; stroke-linecap: round; stroke-dasharray: 16 16; }
      .bus-line circle, .node { fill: #67e8f9; filter: url(#softGlow); }
      .signal { fill: none; stroke: url(#accent); stroke-width: 4; stroke-linecap: round; stroke-dasharray: 10 14; }
      .equipment { fill: #1e293b; stroke: #64748b; stroke-width: 4; }
      .cab { fill: #334155; stroke: #67e8f9; stroke-width: 3; }
      .window { fill: #0f172a; stroke: #67e8f9; stroke-width: 3; opacity: .92; }
      .arm { fill: none; stroke: #64748b; stroke-width: 20; stroke-linecap: round; }
      .floor { fill: #334155; opacity: .62; }
      .wheel { fill: #0f172a; stroke: #64748b; stroke-width: 12; }
      .logger-case { fill: #111827; stroke: url(#accent); stroke-width: 4; filter: url(#softGlow); }
      .logger-face { fill: #1e293b; stroke: #475569; stroke-width: 3; }
      .module-terminal { fill: #334155; stroke: #64748b; stroke-width: 2; }
    </style>
  </defs>
  <rect class="bg" width="1200" height="800" rx="0" />
  <rect class="halo" width="1200" height="800" />
  <g><path class="grid" d="M0 0 V800" /><path class="grid" d="M80 0 V800" /><path class="grid" d="M160 0 V800" /><path class="grid" d="M240 0 V800" /><path class="grid" d="M320 0 V800" /><path class="grid" d="M400 0 V800" /><path class="grid" d="M480 0 V800" /><path class="grid" d="M560 0 V800" /><path class="grid" d="M640 0 V800" /><path class="grid" d="M720 0 V800" /><path class="grid" d="M800 0 V800" /><path class="grid" d="M880 0 V800" /><path class="grid" d="M960 0 V800" /><path class="grid" d="M1040 0 V800" /><path class="grid" d="M1120 0 V800" /><path class="grid" d="M1200 0 V800" /><path class="grid" d="M0 0 H1200" /><path class="grid" d="M0 80 H1200" /><path class="grid" d="M0 160 H1200" /><path class="grid" d="M0 240 H1200" /><path class="grid" d="M0 320 H1200" /><path class="grid" d="M0 400 H1200" /><path class="grid" d="M0 480 H1200" /><path class="grid" d="M0 560 H1200" /><path class="grid" d="M0 640 H1200" /><path class="grid" d="M0 720 H1200" /><path class="grid" d="M0 800 H1200" /></g>
  <g><text class="glyph" x="1060" y="86">{</text><text class="glyph" x="940" y="104">CAN</text><text class="glyph" x="86" y="712">&lt;&gt;</text><text class="glyph" x="1030" y="704">//</text><text class="glyph" x="545" y="92">[]</text><text class="glyph" x="610" y="716">=</text></g>
  <text class="eyebrow" x="70" y="88">Application context</text>
  <text class="title" x="70" y="146">TOPCON OPUS A8e</text>
  <text class="subtitle" x="72" y="190">Large touch HMI for advanced machine interfaces</text>
  
    <g class="application-scene" transform="translate(92 170)">
      <rect class="floor" x="0" y="365" width="520" height="18" rx="9" />
      <path class="equipment" d="M56 246 h282 l64 64 h76 v55 H36 v-54 h20z" />
      <circle class="wheel" cx="124" cy="370" r="44" />
      <circle class="wheel" cx="398" cy="370" r="44" />
      <rect class="cab" x="250" y="130" width="145" height="118" rx="18" />
      <path class="window" d="M274 154 h82 l22 68 h-104z" />
      <path class="arm" d="M74 238 C180 142 270 112 424 118" />
      <circle class="node" cx="424" cy="118" r="17" />
      <circle class="node" cx="250" cy="246" r="13" />
    </g>
    
    <g>
      <rect class="device-body" x="690" y="198" width="360" height="240" rx="34" />
      <rect class="screen" x="726" y="238.8" width="288" height="158.39999999999998" rx="22" />
      <path class="screen-grid" d="M754 288.8 H986" />
      <path class="screen-grid" d="M754 345.2 H986" />
      <path class="screen-grid" d="M784 266.8 V369.2" />
      <text class="screen-text" x="768" y="310">12.1 in</text>
      <text class="small-screen-text" x="768" y="346">HMI / CAN-Bus</text>
      
      
    </g>
  
    <path class="signal" d="M560 370 C634 300, 634 400, 708 330" />
    <g class="panel compact-panel" transform="translate(665 485)">
      <rect width="405" height="118" rx="26" />
      <text class="panel-eyebrow" x="28" y="46">Eltronic support</text>
      <text class="panel-copy strong" x="28" y="78">Specification, integration and enquiry-led supply</text>
    </g>
  
</svg>
